<?xml version="1.0" standalone="no"?>
<!DOCTYPE svg PUBLIC "-//W3C//DTD SVG 20010904//EN"
 "http://www.w3.org/TR/2001/REC-SVG-20010904/DTD/svg10.dtd">
<svg version="1.0" xmlns="http://www.w3.org/2000/svg"
 width="260.000000pt" height="260.000000pt" viewBox="0 0 260.000000 260.000000"
 preserveAspectRatio="xMidYMid meet">
<metadata>
Created by potrace 1.11, written by Peter Selinger 2001-2013
</metadata>
<g transform="translate(0.000000,260.000000) scale(0.100000,-0.100000)"
fill="#000000" stroke="none">
<path d="M803 2403 c-42 -15 -43 -16 -43 -59 0 -25 9 -64 20 -86 11 -23 20
-47 20 -54 0 -29 167 -178 238 -211 56 -27 68 -28 76 -7 9 22 1 31 -47 52 -23
11 -51 29 -61 41 -11 11 -25 21 -31 21 -16 0 -93 102 -107 140 -5 17 -14 30
-19 30 -14 0 -11 68 4 73 6 2 28 0 47 -4 19 -5 50 -9 69 -9 32 0 131 -47 131
-63 0 -4 13 -21 30 -38 29 -31 68 -115 57 -125 -3 -3 -16 7 -29 22 -94 112
-97 114 -142 91 l-26 -14 24 -22 c13 -12 32 -38 42 -58 11 -20 29 -48 42 -61
12 -14 28 -37 35 -51 11 -24 61 -46 79 -35 4 3 -3 22 -17 42 -30 44 -31 48 -5
48 13 0 21 -9 25 -28 7 -29 25 -39 25 -14 0 35 -33 153 -55 195 -12 26 -42 69
-64 96 -23 28 -39 55 -37 61 3 7 -13 20 -35 29 -33 16 -43 16 -64 5 -22 -12
-57 -11 -120 3 -11 3 -39 -2 -62 -10z"/>
<path d="M943 2413 c9 -2 23 -2 30 0 6 3 -1 5 -18 5 -16 0 -22 -2 -12 -5z"/>
<path d="M1494 2360 c-5 -5 -45 -14 -89 -20 -85 -11 -120 -27 -137 -66 -10
-20 -9 -27 2 -34 11 -7 23 -1 42 20 23 26 34 30 77 30 44 0 50 -2 44 -17 -3
-10 -13 -27 -23 -38 -38 -46 -89 -145 -109 -209 -22 -71 -27 -160 -12 -186 16
-24 2 -30 -37 -16 -122 44 -397 70 -451 42 -16 -9 -37 -13 -46 -10 -25 10
-174 -97 -175 -125 0 -7 -11 -26 -24 -41 -13 -16 -27 -49 -30 -73 -7 -46 -36
-88 -36 -53 0 9 7 31 16 48 16 31 12 98 -6 98 -5 0 -21 -25 -36 -56 -21 -45
-25 -65 -21 -104 3 -27 1 -52 -4 -57 -6 -6 -9 -21 -6 -34 4 -22 5 -21 11 7 6
25 12 30 27 27 21 -6 24 -20 10 -56 -6 -14 -7 -28 -3 -32 7 -6 3 -75 -5 -88
-2 -4 -13 -2 -24 3 -22 12 -27 -4 -6 -17 17 -10 30 -43 17 -43 -16 0 -12 -37
6 -55 9 -8 14 -22 11 -29 -6 -15 16 -101 39 -151 7 -16 20 -47 28 -68 9 -21
20 -36 26 -32 5 3 10 2 10 -4 0 -5 -6 -12 -12 -14 -10 -4 -10 -6 0 -6 6 -1 12
-10 12 -21 0 -10 9 -24 20 -30 13 -7 20 -21 20 -41 0 -26 47 -127 71 -153 5
-6 9 -20 9 -32 0 -12 11 -36 25 -52 14 -17 25 -37 25 -46 0 -9 21 -39 46 -66
41 -44 45 -51 38 -84 -6 -34 9 -53 19 -23 3 9 9 7 24 -6 11 -9 28 -17 38 -17
14 0 16 -5 11 -32 -6 -32 -6 -33 9 -10 22 30 58 29 75 -3 12 -22 15 -23 29
-11 11 9 23 11 39 5 23 -9 23 -16 5 -81 -3 -14 2 -18 20 -18 21 0 28 8 39 43
11 32 20 43 39 45 13 2 30 11 37 20 11 14 19 15 71 4 96 -20 182 -3 287 57
104 60 136 92 209 210 31 50 61 88 66 85 5 -3 6 1 3 9 -3 8 -1 18 5 22 6 3 11
1 11 -4 0 -6 5 -11 10 -11 14 0 60 98 60 128 0 13 7 30 15 38 23 23 18 40 -5
19 -19 -18 -20 -17 -20 3 0 11 5 22 11 24 6 2 12 18 13 36 1 18 10 40 20 50
18 16 18 16 11 -8 -4 -14 -9 -38 -11 -55 l-5 -30 20 35 c11 19 20 54 21 76 0
28 5 44 15 48 9 3 15 18 15 35 0 16 4 32 9 35 5 3 19 38 31 78 12 40 26 83 31
96 5 13 9 33 9 46 0 12 12 33 26 47 21 19 24 30 19 54 -3 16 -10 73 -15 125
-16 184 -29 213 -164 360 -29 31 -64 56 -74 52 -6 -2 -23 3 -39 11 -36 18
-183 32 -183 17 0 -5 19 -11 43 -11 l42 -2 -50 -8 c-27 -5 -84 -12 -125 -15
-87 -7 -105 -15 -185 -83 -32 -28 -62 -51 -65 -51 -3 0 -7 12 -9 28 -11 87 5
188 36 225 12 16 23 37 23 48 0 17 25 56 90 142 12 15 28 27 35 27 23 0 28 38
8 64 -20 28 -25 30 -39 16z m257 -442 c19 -1 39 -5 44 -8 6 -4 22 -10 36 -14
48 -11 189 -139 189 -172 0 -12 5 -26 10 -29 6 -3 10 -17 10 -29 0 -59 -93 15
-106 84 -6 29 -45 70 -67 70 -6 0 -18 6 -26 14 -27 23 -149 57 -178 50 -20 -6
-24 -4 -18 7 21 37 38 48 55 39 10 -5 33 -10 51 -12z m-601 -117 c41 -7 77
-15 79 -17 7 -7 -29 -31 -89 -61 -47 -24 -71 -29 -165 -33 -60 -3 -126 -2
-145 2 -45 9 -55 -1 -69 -69 -16 -80 -15 -86 11 -80 13 4 32 -2 51 -15 16 -11
48 -23 73 -26 40 -4 47 -1 95 42 28 26 65 54 80 63 16 10 29 21 29 25 0 19 25
6 27 -14 13 -129 14 -127 -25 -169 -19 -22 -52 -49 -72 -59 -23 -12 -51 -40
-71 -72 -57 -89 -50 -148 61 -478 16 -47 32 -101 35 -120 4 -19 15 -64 26 -99
10 -35 19 -73 19 -85 -1 -17 -4 -15 -20 14 -20 37 -22 36 -24 -19 -1 -28 -5
-34 -23 -36 -12 -1 -20 2 -17 7 8 13 -5 78 -16 78 -5 0 -12 -9 -15 -21 -9 -26
-18 -16 -35 38 -7 24 -16 43 -20 43 -4 0 -18 -26 -31 -57 -30 -73 -34 -57 -10
37 16 64 17 78 5 106 -21 50 -30 48 -44 -11 -7 -30 -17 -52 -22 -49 -4 3 -6 9
-3 13 2 5 11 34 19 65 14 53 14 60 -4 101 -11 25 -24 45 -29 45 -5 0 -13 -33
-17 -72 l-8 -73 -8 43 c-5 23 -14 42 -19 42 -10 0 -35 59 -31 73 1 4 -6 7 -17
7 -14 0 -17 6 -13 26 4 24 -12 75 -44 136 -8 14 -14 40 -14 56 0 17 -4 34 -10
37 -5 3 -10 17 -10 31 0 14 -6 27 -13 30 -10 3 -12 22 -10 66 3 42 -1 72 -12
95 -9 18 -14 46 -12 61 4 25 4 25 6 -5 1 -40 20 -54 23 -16 0 15 2 39 3 53 2
40 36 131 46 124 5 -3 9 4 9 15 0 12 4 21 10 21 5 0 12 11 16 24 9 37 34 21
34 -23 l1 -36 24 45 23 45 -23 8 c-25 9 -40 46 -25 61 7 7 10 4 10 -7 0 -15 3
-15 33 -2 17 7 45 17 61 20 21 4 26 9 18 17 -9 9 -18 8 -37 0 -43 -20 -43 -12
0 9 34 17 57 19 155 16 63 -3 149 -10 190 -16z m-470 -76 c-13 -14 -26 -23
-28 -20 -4 4 38 44 47 45 3 0 -6 -11 -19 -25z m122 -105 c-12 -29 -18 -34 -20
-20 -4 21 14 60 28 60 5 0 1 -18 -8 -40z m-201 -93 c-13 -13 -15 24 -3 63 6
22 7 21 10 -14 2 -21 -1 -43 -7 -49z m1349 -429 c0 -7 -12 -31 -25 -53 -14
-22 -25 -54 -25 -72 0 -18 -6 -36 -14 -40 -17 -9 -58 -112 -50 -125 3 -4 1 -8
-4 -8 -6 0 -19 -15 -31 -32 -17 -27 -21 -29 -21 -13 -1 11 -11 -15 -24 -57
-12 -42 -27 -83 -33 -90 -6 -7 -14 -27 -17 -45 -4 -17 -14 -37 -22 -44 -8 -6
-14 -16 -14 -21 0 -5 -12 -20 -27 -34 -16 -14 -22 -23 -15 -19 6 3 12 2 12 -3
0 -8 -37 -30 -155 -91 -45 -23 -61 -26 -156 -26 -88 0 -108 -3 -123 -18 -10
-10 -21 -15 -24 -12 -3 3 3 11 13 19 15 11 17 17 7 28 -9 12 -9 26 4 69 40
141 66 209 80 209 9 0 14 -8 12 -22 -2 -13 0 -23 3 -23 3 0 13 -6 22 -13 9 -8
20 -11 26 -8 5 3 12 0 15 -6 3 -7 4 -4 3 7 -1 11 5 21 16 23 14 3 17 -4 17
-32 0 -51 14 -44 40 19 30 74 42 79 20 7 -27 -87 -29 -117 -6 -117 16 0 27 26
66 145 54 168 90 246 112 242 9 -1 28 19 49 53 24 40 43 58 71 69 22 9 43 27
52 44 28 54 147 127 146 90z m-1273 -141 c-3 -7 -12 5 -21 25 -23 53 -20 70 5
24 11 -21 18 -43 16 -49z m1216 -202 c-3 -9 -8 -14 -10 -11 -3 3 -2 9 2 15 9
16 15 13 8 -4z m-563 -52 c-11 -17 -11 -17 -6 0 3 10 6 24 7 30 0 9 2 9 5 0 3
-7 0 -20 -6 -30z m-183 -257 c-16 -51 -25 -65 -44 -69 -17 -3 -21 -1 -13 8 5
6 7 15 4 18 -5 5 64 107 72 107 1 0 -7 -29 -19 -64z m-151 19 c0 -14 -4 -25
-8 -25 -10 0 -10 13 -2 34 9 23 12 20 10 -9z"/>
<path d="M837 937 c-3 -9 -2 -19 4 -23 15 -9 18 -2 9 20 -6 17 -7 18 -13 3z"/>
<path d="M1260 385 c0 -11 -7 -14 -25 -9 -16 4 -25 2 -25 -5 0 -19 28 -24 60
-10 34 16 40 39 10 39 -11 0 -20 -7 -20 -15z"/>
<path d="M1335 380 c11 -5 29 -9 40 -9 17 -1 17 1 5 9 -8 5 -26 9 -40 9 -23 0
-23 -1 -5 -9z"/>
<path d="M1115 2340 c3 -5 10 -10 16 -10 5 0 9 5 9 10 0 6 -7 10 -16 10 -8 0
-12 -4 -9 -10z"/>
<path d="M584 1842 c-15 -10 -27 -62 -14 -62 16 0 44 50 34 60 -5 5 -14 6 -20
2z"/>
<path d="M521 1771 c-12 -24 -20 -45 -18 -48 7 -6 48 68 44 80 -2 6 -13 -9
-26 -32z"/>
<path d="M1850 601 c-12 -24 -13 -34 -1 -27 9 6 22 46 15 46 -2 0 -8 -9 -14
-19z"/>
<path d="M906 245 c-9 -26 -7 -32 5 -12 6 10 9 21 6 23 -2 3 -7 -2 -11 -11z"/>
</g>
</svg>
